<svg xmlns="http://www.w3.org/2000/svg" viewBox="0 0 512 512">
  <defs>
    <linearGradient id="bgGradient" x1="0%" y1="0%" x2="100%" y2="100%">
      <stop offset="0%" stop-color="#6CBBFB"/>
      <stop offset="100%" stop-color="#4A9FE8"/>
    </linearGradient>
  </defs>
  
  <!-- Rounded rectangle background -->
  <rect width="512" height="512" rx="96" ry="96" fill="url(#bgGradient)"/>
  
  <!-- Archive/Organizer icon (scaled and centered) -->
  <g transform="translate(96, 96) scale(13.33)" fill="none" stroke="white" stroke-width="2" stroke-linecap="round" stroke-linejoin="round">
    <path d="M19 11H5m14 0a2 2 0 012 2v6a2 2 0 01-2 2H5a2 2 0 01-2-2v-6a2 2 0 012-2m14 0V9a2 2 0 00-2-2M5 11V9a2 2 0 012-2m0 0V5a2 2 0 012-2h6a2 2 0 012 2v2M7 7h10"/>
  </g>
</svg>
